<?xml version="1.0" encoding="UTF-8"?>
<svg xmlns="http://www.w3.org/2000/svg" id="Layer_1" data-name="Layer 1" viewBox="0 0 505.27 201.93">
  <g id="surface1">
    <path d="M219,266.12a2.35,2.35,0,0,1-.35-2.56,4.53,4.53,0,0,0,.66-3.77.71.71,0,0,1,.38-.84c1.6-.72,1.07-1.95.65-3s-.33-2.27-.72-3.35c0-.8-.24-1.67.53-2.29,1.06-.88.45-1.56-.26-2.23,1.24-1.75.4-3.81.93-5.66a2.34,2.34,0,0,1,.27-.49h0c1.51-.42,1,1.78,2.24,1.62a1.88,1.88,0,0,1,.62.2c.86.43.37,1.55,1.13,2a7.38,7.38,0,0,1,1.13,4.89c-.13,1.89-.19,3.78-.43,5.67a5.21,5.21,0,0,0,.67,3.59,3.8,3.8,0,0,1,0,4.45c-.58.89.2,2.26-1.13,2.86-.41-.08-.81-.8-1.23,0a7.08,7.08,0,0,1-1.33,1.84c-1.56,1.39-2.81,1.11-3.45-.81C219,267.58,218.51,266.89,219,266.12Z" transform="translate(-3.36 -151.7)" style="fill:#1d1d1b;fill-rule:evenodd"></path>
    <path d="M219,266.12a7.68,7.68,0,0,0,.57,1.36c.4.59.43,1.65,1.24,1.72,1,.09,1.45-1,2-1.66.7-.85.36-2.38,2-2.78.68.71.38,1.65.51,2.48-.2,1.58.58,3,.73,4.54.12,1.16.22,2.18-1.19,2.63-.81.25-1.08,1.08-1.71,1.46-1.37.84-2,1.73-.36,3.43-3.32-.42-3.4,1.85-4.07,3.51a11.47,11.47,0,0,1-.9,2.56,1.62,1.62,0,0,1-1.07.85,1.68,1.68,0,0,1-1.36-.26c-.62-.33-1.23-.64-.49-1.47a2.82,2.82,0,0,0,.41-2.11,13.76,13.76,0,0,1,.17-4.2c.08-.32,0-.81.17-1,2.07-1.61,1.85-4,2.36-6.16l.69-2.89a.32.32,0,0,0,.08-.24.32.32,0,0,0-.13-.22A2,2,0,0,1,219,266.12Z" transform="translate(-3.36 -151.7)" style="fill:#1d1d1b;fill-rule:evenodd"></path>
    <path d="M64.09,317.85c.61.44.74,1.37,1.64,1.53,1.06.38,2.24-.53,3.26.3.23,1-.52,1.49-1.14,2.05,1.69-.63,3.17-2.64,5.29-.68A7.62,7.62,0,0,1,74.79,328c-.47,1.3-1.93.92-2.7,1.66a2.33,2.33,0,0,1-2.27-.84c-.64-.58-.34-2.25-2-1.88-.92-3.07-4.22-2.48-6.33-3.7a14,14,0,0,1-2.31-1.89A25.8,25.8,0,0,1,57,317.69c-1.48-2.41-4.83-2.7-6.12-5.27-.24-.49-.85-.8-1.1-1.35a1.49,1.49,0,0,1,0-1.06l.17-.33a2.1,2.1,0,0,1,.52-.51l.66-.32a2.19,2.19,0,0,1,2.47-.15c2.93,2.89,5.47,6.16,9,8.5C63,317.5,63.34,318.23,64.09,317.85Z" transform="translate(-3.36 -151.7)" style="fill:#1d1d1b;fill-rule:evenodd"></path>
    <path d="M13.48,309.43c.58-.86,1.64-.77,1.91-.17.52,1.11,1.68,1.64,2.19,2.47,1,1.59,1.64,3.63.76,5.43a43.75,43.75,0,0,1-3.53,5.24c-.75-.54-1.84-.15-2.55-.8a1.49,1.49,0,0,0-1-.42c-1.45.59-2.89,1-4.17-.34L6.43,320A5.63,5.63,0,0,1,5.2,314c.39,0,.61-.17.39-.59a1.26,1.26,0,0,1,.71-1.13c.23-.18.14-.44.15-.68C8.15,309,10.57,308.47,13.48,309.43Z" transform="translate(-3.36 -151.7)" style="fill:#1d1d1b;fill-rule:evenodd"></path>
    <path d="M45.42,190.44c.11-.22.31-.45.3-.68-.19-3.55,2.47-4.89,5.21-6.16a17.15,17.15,0,0,1,2.38-.91c1.36-.41,2.41-.9,2.58-2.57s1.91-1.92,3.14-2.57a18.53,18.53,0,0,0,2.59-2.05,1.32,1.32,0,0,1,.44-.23c2.17,1.19.75,2.66.29,4l0,0c-.38.49-1,.7-1.39,1.19-3.19,2.29-5.35,5.6-8.51,7.92-.39.43-1,.59-1.29,1.15-1.23-.18-1.93.82-2.92,1.14S46.13,192.13,45.42,190.44Z" transform="translate(-3.36 -151.7)" style="fill:#1d1d1b;fill-rule:evenodd"></path>
    <path d="M225,245.79c-.4.18-.93,1.06-1.1-.17a2.26,2.26,0,0,0-.65-1.73v-.15l-.11.09.12,0c-.09,1-.88.93-1.49.81s-.46-.75-.33-1.22a1.33,1.33,0,0,0-.43-1.53l-.05-.16v-.17a5.52,5.52,0,0,0-.13-2.62,62.53,62.53,0,0,0-2.46-10.28,32.7,32.7,0,0,1-.53-3.39c-.21-.34-.19-.77-.46-1.08v-.52c2.63-.11,2.35,2.08,2.64,3.46s.76,2.16,2.23,2.25c1.23,1.43,1.29,3.38,2.4,4.87a1.19,1.19,0,0,1,.15,1c-.76,2.41.42,4.51,1.18,6.66a1.27,1.27,0,0,1-.61,1.83c-.45.53,0,1,.09,1.5Z" transform="translate(-3.36 -151.7)" style="fill:#1d1d1b;fill-rule:evenodd"></path>
    <path d="M72.1,329.51c.39-.37-.54-2.06,1.29-1.1.57.31,1-.54.66-1.14a1.8,1.8,0,0,1,0-2.43c.55-.76-1.55-3.65-2.59-3.95a.79.79,0,0,0-.64,0,.75.75,0,0,0-.38.49c-.56,1.65-2.31.59-3.29,1.29a2.31,2.31,0,0,1-1-1c-.14-.81.66-.09.85-.33a8.72,8.72,0,0,1,1.84-1.64c.91-2.22,2.17-2.84,4-1.71,1.38.87,3,1.39,3.8,3.11.73,1.52,1.31,2.73.37,4.34a1.91,1.91,0,0,0,.16,2.3c.34.26.66.59.4,1a1.29,1.29,0,0,1-.57.43c-.85.44-.34,1.19-.41,1.78-.12,1.12.88.59,1.43.76a2.29,2.29,0,0,1,.62.38c-.34.68.32,1.24.24,1.9a1,1,0,0,1-.81.59,2.18,2.18,0,0,1-.72,0,3.24,3.24,0,0,1-1-.43c-.62-.46-1.1-1-1.76.06a2.55,2.55,0,0,1-2.72,1.42c-1.27-1.49-.62-3,0-4.53.11-.23.18-.49.27-.73,0,0,0-.22,0-.21v-.68Z" transform="translate(-3.36 -151.7)" style="fill:#1d1d1b;fill-rule:evenodd"></path>
    <path d="M34,206.11c-1.42-.69-.83-2-.92-3.08,0-.49.65-.67,1.23-.65,2.1.08,3.22-1.11,4.16-2.74.42-.76.32-1.61.71-2.29.74-1.27,1-2.89,2.81-3.41,1-.28.88-1.35,1.47-1.92,1,.71,2.27,1.06,2.7,2.36-.41.6-1,.88-1.49,1.55-2.28,3.48-3.62,7.74-8,9.59-.79.33-1.08,1-1.54,1.61C34.08,207.44,34.38,206.43,34,206.11Z" transform="translate(-3.36 -151.7)" style="fill:#1d1d1b;fill-rule:evenodd"></path>
    <path d="M122.38,156.8A72.65,72.65,0,0,0,108.15,159c-1.56.4-3.46-.24-5.14-.6a3.35,3.35,0,0,0-2.47,0c-.86.44-1.76,1.19-2.86.43a.53.53,0,0,0-.46,0c-1.33,2.21-3.84,1.39-5.77,2.15.47-2.92.62-3.19,3.44-3.62a67.3,67.3,0,0,0,7.85-1.57,2.85,2.85,0,0,1,2.37.52.88.88,0,0,0,.36.33,1.17,1.17,0,0,1-.36-.34c.39-.51.78-1,1.55-1a5.17,5.17,0,0,0,4.14,1.12,3.1,3.1,0,0,1,.68-.1,3.75,3.75,0,0,1,.67,0,2.89,2.89,0,0,1,.66,0,2,2,0,0,0,1.51-.07,2.65,2.65,0,0,1,.62-.14,2,2,0,0,0,1.57-.8,1.77,1.77,0,0,1,.84-.45,2.11,2.11,0,0,1,.93.1c.27.1.52.25.79.34a4.94,4.94,0,0,0,.77.12h1.1a3.82,3.82,0,0,1,.58,0,1.77,1.77,0,0,1,.85.35.78.78,0,0,1,.23.52A.75.75,0,0,1,122.38,156.8Z" transform="translate(-3.36 -151.7)" style="fill:#1d1d1b;fill-rule:evenodd"></path>
    <path d="M54.63,328.11c-1.69.38-2.73-.94-3.7-1.72-1.74-1.39-3.7-2.52-5.22-4.26-1.12-1.29-1.3-2.75-1.93-4.14s-2.55-1.78-2.46-3.56a1.56,1.56,0,0,0-.9-1.4c-1.34-.78-1.85-2.08-2.42-3.39-.66-.85-1-1.91-2.17-2.37-.74-.3-.83-1-.74-1.69a5,5,0,0,0-4-4.84c-1.29-.37-1.63-.79-1.58-1.9a2.27,2.27,0,0,0-.19-.71c-.1-.8-.09-1.55,1-1.77,2.14,2.3,4.48,4.42,6.78,6.58a3.3,3.3,0,0,1,.35,1.41c-.14,1.48,1.34,2,2,3,1.35,2.27,2.75,4.51,4,6.85,1.07.91,2.28,1.72,2.7,3.15A32.15,32.15,0,0,0,49,322.5a5,5,0,0,0,.7.59,3.74,3.74,0,0,1,.52.28,2.56,2.56,0,0,1,.48.33l.24.16.46.36.25.17a3.45,3.45,0,0,1,.5.35l.25.21a9.48,9.48,0,0,0,1.77,1c.8.34,1.48.78,1.51,1.75a1,1,0,0,1-.36.59A.67.67,0,0,1,54.63,328.11Z" transform="translate(-3.36 -151.7)" style="fill:#1d1d1b;fill-rule:evenodd"></path>
    <path d="M64.09,317.85c-.09.41-.24,1-.78.59a34.84,34.84,0,0,1-5.59-4.33c-1.55-1.71-3.14-3.29-4.64-5a2.6,2.6,0,0,0-.69-.63c-.31-.08-.61-.18-.91-.29a3.66,3.66,0,0,1-.75-.6l-1-.84c-1.72-1.11-2.24-3.1-3.64-4.45-1.66-2.79-4.68-4.55-6.09-7.5a2.46,2.46,0,0,0-1-.46l-.29-.06-.28-.11-.26-.17c-.39-.32-.51-.84-.92-1.18a5.84,5.84,0,0,1-.48-.39,3,3,0,0,1-.68-.65,1.43,1.43,0,0,1-.17-.6c.1-.45.24-.85.87-.67.25.34.76.17,1,.5h0c.2.14.41.28.62.4l0,0c.32.38.81.26,1.23.43a4.22,4.22,0,0,1,2.72,2.11,14,14,0,0,0,2.87,3.51,10.41,10.41,0,0,1,2.85,4.07,6.61,6.61,0,0,0,2.31,2.9c3.7,2.8,6,6.83,9.45,9.82C61.27,315.44,63,316.28,64.09,317.85Z" transform="translate(-3.36 -151.7)" style="fill:#1d1d1b;fill-rule:evenodd"></path>
    <path d="M185.93,326.29a10.81,10.81,0,0,1,4-4.74c.62-.4,1.51-.77,1.77-1.37,1.06-2.47,3.83-3.19,5.4-5.12.09-.12.3-.15.46-.22a1.3,1.3,0,0,1,1.23,1.11,2.26,2.26,0,0,1-1.07,2.28,7.61,7.61,0,0,0-3.13,3.42,7.36,7.36,0,0,1-2.11,2.47c-1.73,1.44-3.59,2.75-5.39,4.1l-.29-.14a8.83,8.83,0,0,0-1-1.24A.47.47,0,0,1,185.93,326.29Z" transform="translate(-3.36 -151.7)" style="fill:#1d1d1b;fill-rule:evenodd"></path>
    <path d="M28.22,225.17c-.54.05-.85-.38-1.11-.81a2.84,2.84,0,0,1,.3-3.28c.66-.93,1.28-1.77.39-2.89a.94.94,0,0,1-.24-.83,1,1,0,0,1,.54-.68,3.71,3.71,0,0,0,1.35-1.43c.19-.36.51-.73,1-.53a.73.73,0,0,1,.39.84,5.69,5.69,0,0,0,1.18,3.5C34.48,222.9,32.08,224.5,28.22,225.17Z" transform="translate(-3.36 -151.7)" style="fill:#1d1d1b;fill-rule:evenodd"></path>
    <path d="M222.23,229.43c-.77,0-1,.81-1.71,1a11,11,0,0,1-1.58-3.88c-.19-1-.16-2.36-1.58-2.87a5.35,5.35,0,0,0-.66-2.13,7.63,7.63,0,0,1-1.11-6.31c3.49.85,4.23,3.66,4.07,6.35-.13,2.13.77,3.43,1.84,4.89-.09.49-.33,1,.25,1.37A1.83,1.83,0,0,1,222.23,229.43Z" transform="translate(-3.36 -151.7)" style="fill:#1d1d1b;fill-rule:evenodd"></path>
    <path d="M88.13,343.43a3,3,0,0,1-2.68.4c-2.41-.59-4.83-1.1-7.23-1.69-2.09-.53-3.34-2.2-4.77-3.56a3.83,3.83,0,0,0-2.11-1.19,17.51,17.51,0,0,1-6.31-1.9,1.55,1.55,0,0,1,1-1.09c1.91-.44,3.58.33,5.29,1a4.71,4.71,0,0,0,.62.35,3.43,3.43,0,0,0,1,.15,2.54,2.54,0,0,1,.66.21,5.25,5.25,0,0,1,.89.51,20.43,20.43,0,0,1,2.46,1.87c2,1.59,4.61,1.57,6.71,2.81.38.2.77.4,1.17.59a4.62,4.62,0,0,0,.65.09A14.32,14.32,0,0,0,88,341c1.49-.42,2.13-.05,1.63,1.51A2,2,0,0,1,88.13,343.43Z" transform="translate(-3.36 -151.7)" style="fill:#1d1d1b;fill-rule:evenodd"></path>
    <path d="M77.15,327.75c-.07.31-.1.69-.53.73a.64.64,0,0,1-.5-.14.57.57,0,0,1-.21-.45,13.72,13.72,0,0,1,.34-2.93c.22-.78,1-1.53.41-2.33-.71-1-1.1-2.29-2.43-2.79a6.16,6.16,0,0,1-.94-.43c-2.35-1.45-2.35-1.45-4.43.28a10.08,10.08,0,0,0-2.67.39c-.68.19-.56-.32-.46-.72A9.13,9.13,0,0,0,70,317.09c.78-.6,1.77-.93,2.35-.47,1.28,1,3,1.07,4.22,2.19.57.52,1.18,1,.91,1.9A1,1,0,0,0,78,322c1.24.72.86,1.62.34,2.55-.27.52-.51,1.05-.77,1.57s-.81.92-.41,1.58Z" transform="translate(-3.36 -151.7)" style="fill:#1d1d1b;fill-rule:evenodd"></path>
    <path d="M33.36,285.77a16.13,16.13,0,0,0,.21-1.95,2.47,2.47,0,0,1,1.84-2.57,3.5,3.5,0,0,1,3.79,1.26c1.46,2.49.95,3.7-1.85,4.65a1.74,1.74,0,0,1-2.07-.33,5.42,5.42,0,0,0-2-1.06Z" transform="translate(-3.36 -151.7)" style="fill:#1d1d1b;fill-rule:evenodd"></path>
    <path d="M31.6,323.82c-.57,1.34-1.44,2.26-3.13,1.9a1.26,1.26,0,0,0-.94.26c-1.73,1-2.75.77-4.28-.86s-1.58-2.49-.35-4.15c.26-.33.77-.64.62-1-.52-1.65.65-1.94,1.85-2.25A6.09,6.09,0,0,1,28,320.06c1,1.33.53,2.59-1.19,3.21a1.71,1.71,0,0,1-1.73.5c.84.59,1.23,0,1.66-.43.7-.74,1.35-.28,2,.07a.8.8,0,0,0,.68-.31l.41-.43c.58-.59.88-1.63,2.08-1.26a.35.35,0,0,1,.2.27.38.38,0,0,1-.08.32.42.42,0,0,1-.11.41C31.63,322.83,32.12,323.45,31.6,323.82Z" transform="translate(-3.36 -151.7)" style="fill:#1d1d1b;fill-rule:evenodd"></path>
    <path d="M36.66,272.21a2.76,2.76,0,0,1,1.11-2.2,3,3,0,0,1,2.46-.55c.8.21,1.91,2,1.8,3.31a4.87,4.87,0,0,0,.09,2.18c.34,1-.47,1.34-1.18,1.62a.94.94,0,0,1-.88,0,.86.86,0,0,1-.44-.74c-.1-.71-.52-.84-1.17-1C37,274.31,36.65,273.71,36.66,272.21Z" transform="translate(-3.36 -151.7)" style="fill:#1d1d1b;fill-rule:evenodd"></path>
    <path d="M127.08,350.78a1.06,1.06,0,0,1-.5,0,.79.79,0,0,0-1,0,9.65,9.65,0,0,1-4.85.36,7.78,7.78,0,0,0-3.56,0,1.06,1.06,0,0,1-.89,0,1,1,0,0,1-.57-.66,1.37,1.37,0,0,1,.54-1.78c1.54-.7,3-2,4.93-.63,1.08.76,2.66.51,3.88,1.22.65.38,1.27-.37,1.94-.47C129,349.35,128.11,350.06,127.08,350.78Z" transform="translate(-3.36 -151.7)" style="fill:#1d1d1b;fill-rule:evenodd"></path>
    <path d="M192.33,176.19c1.56.55,2.56,1.9,4,2.59.71.32.43,1.69-.35,1.66-2.2-.09-4.31,1.13-6.51.44-.15-.3,0,.11-.13-.2-.46-1.33-2-2.49-1-4S191,176.58,192.33,176.19Z" transform="translate(-3.36 -151.7)" style="fill:#1d1d1b;fill-rule:evenodd"></path>
    <path d="M22.74,238.49c.94-1.4-.06-3.6,2-4.74.82-.47,1.42-.5,1.8.47.27.7.56,1.39.88,2.08.44.95.78,1.77-.48,2.52-.86.47-1,1.52-1.36,2.37a1.14,1.14,0,0,1-.94.72c-.61,0-.9-.42-1.06-.9C23.25,240.22,23,239.43,22.74,238.49Z" transform="translate(-3.36 -151.7)" style="fill:#1d1d1b;fill-rule:evenodd"></path>
    <path d="M117.58,155.08l-.49.51a.94.94,0,0,1-.56.32c-.46,0-.92,0-1.37-.08a2.65,2.65,0,0,1-.73-.16c-.77-.44-1.56-.89-1.1-2,2.72-.63,5.54-.38,8.28-.88l.55.06a2,2,0,0,0,2-.26,1,1,0,0,1,.53-.63,1.07,1.07,0,0,1,.84,0,7.24,7.24,0,0,1,2.24,1c.53-.33,1.14.09,1.68-.17a.93.93,0,0,1,.46.15.83.83,0,0,1,.29.93,2.15,2.15,0,0,1-2.42.75c-1.23-.26-.43.68-.69,1a3.89,3.89,0,0,1-3.87.26c-.52-.19-1-.36-1.43,0l-.49.52a6.22,6.22,0,0,0-.56-.46c-.12-.12-.23-.16-.34-.1s-.16.09-.16.13l-.49.51c-.17-.17-.4-.28-.56-.45a1.53,1.53,0,0,1-1.08-.44Z" transform="translate(-3.36 -151.7)" style="fill:#1d1d1b;fill-rule:evenodd"></path>
    <path d="M198.83,316a2.49,2.49,0,0,1-1.24-1.11,5,5,0,0,0,1.47-2.6c.28-2.24,2.07-3.13,3.8-4.07.85-.47,1.55-.07,1.56.88a4.53,4.53,0,0,1-.95,2.79A11.27,11.27,0,0,1,198.83,316Z" transform="translate(-3.36 -151.7)" style="fill:#1d1d1b;fill-rule:evenodd"></path>
    <path d="M133.1,153.08a10.3,10.3,0,0,0,4,1.65c.48.05,1.14.11,1.17.74a1.52,1.52,0,0,1-.81,1.46c-.29.17-.67.41-.94.34-2-.51-4.13.3-6.13-.39a2.14,2.14,0,0,0-1.72,0,3.53,3.53,0,0,1-3.19-.25c.78-1.35,2.47-1.1,3.56-1.93A8.54,8.54,0,0,0,133.1,153.08Z" transform="translate(-3.36 -151.7)" style="fill:#1d1d1b;fill-rule:evenodd"></path>
    <path d="M62.36,179.32c-.17-.91-.62-1.77,0-2.74.31-.45-.16-.88-.34-1.31.71-1.12,1.23-2.27,3.13-1.66,1.31.44,2.13-.77,3-1.57,1.28-.39,2.3-.41,2.17,1.32C67.66,175.34,64.78,177,62.36,179.32Z" transform="translate(-3.36 -151.7)" style="fill:#1d1d1b;fill-rule:evenodd"></path>
    <path d="M185.93,326.29v.46c.67.24.75.89,1.09,1.37l.08.12a8.93,8.93,0,0,1-3.9,3.09c-1.37.54-2.21,1.78-3.53,2.34-1.07.08-2.16.23-2.78-.92,1-1.32,2.7-1.64,4-2.47s1.85-2.5,3.4-3.22Z" transform="translate(-3.36 -151.7)" style="fill:#1d1d1b;fill-rule:evenodd"></path>
    <path d="M176.91,332.75c.94.28,2.15-.19,2.79.92l0-.05c-.37.23-.19.74-.52,1s-1,.74-1.2,1.22c-1,2.37-2.94,2.88-5.3,2.74a4.63,4.63,0,0,1-.62-3.14c.25-.49.56-1,.83-1.44a1,1,0,0,1,.71-.25,1,1,0,0,0,.49,0,1,1,0,0,0,.33-.35v-.05c.79-.51,1.85.08,2.59-.59Z" transform="translate(-3.36 -151.7)" style="fill:#1d1d1b;fill-rule:evenodd"></path>
    <path d="M70.33,173.36c-.45-.85-1.33-1.05-2.17-1.32a2.08,2.08,0,0,1,.45-2.5,5.24,5.24,0,0,1,2.47-1.44c1-.28,1,1.28,2.4,1.13.33-.33.88-.93,1.49-1.45.32-.27.79-.51,1.12-.07s.71,1,.1,1.29C73.9,170.05,72.74,172.48,70.33,173.36Z" transform="translate(-3.36 -151.7)" style="fill:#1d1d1b;fill-rule:evenodd"></path>
    <path d="M6.94,312.37A1.77,1.77,0,0,0,6,313.93c-.42.29-.93.65-.72,1.15.56,1.39-.37,3.3,1.6,4.24.31.15-.14.52-.47.6a3,3,0,0,0-2.38-.6c-.34-.76.26-1.3.37-1.93s.3-1.29-.23-1.64c-1.66-1.07-.43-1.91.15-2.79.17-.25.81-.4.8-.56-.24-2.37,2.16-2.34,3.33-3.34,1.49-1.29,3.39-1,5,.32-.46.6-1.08.39-1.6.2-2.19-.8-3.41.75-4.82,1.81-.18.15-.09.6-.13.94Z" transform="translate(-3.36 -151.7)" style="fill:#1d1d1b;fill-rule:evenodd"></path>
    <path d="M89.62,342.52c-.2-.33.22-1.18-.76-.87a3.39,3.39,0,0,0-1.39.6c-.78.87-1.67.67-2.61.49-.9-1.34-1.47-2.86-2.84-3.95a2.15,2.15,0,0,1-.33-2.92,1.17,1.17,0,0,1,1-.28c.62.26.81,1.46,1.85.78,1.85.56.54,2.45,1.7,3.3.34.54,1,.32,1.55.33C90.5,340,90.51,340,89.62,342.52Z" transform="translate(-3.36 -151.7)" style="fill:#1d1d1b;fill-rule:evenodd"></path>
    <path d="M121.61,152.81c-.45.66-1.5.44-1.91,1.18-.11.2-.31.59-.53.26-1.16-1.68-2.7-.32-4-.5a8.3,8.3,0,0,0-1.8.1c0,1.36-2.51,1.36-1.85,3.09-1.93,1.14-3.46,0-5-.83-.07,0,.14-.6.22-.9,2.42-.55,4.56-1.89,7.12-2,1.68-.09,3.35-.11,4.87-1.19C119.66,151.24,120.73,152.11,121.61,152.81Z" transform="translate(-3.36 -151.7)" style="fill:#1d1d1b;fill-rule:evenodd"></path>
    <path d="M30.41,296.47l-1.1,1.63c-.82,0-1.2-.63-.86-1.14,1.54-2.33.62-4.5-.27-6.7a.79.79,0,0,1,.09-.22c.72-1.29.36-2.92,1.45-4.08l.37-.52a1.62,1.62,0,0,0,.61-.55.47.47,0,0,1,.57,0,4,4,0,0,1,.52,3.78,2.74,2.74,0,0,1-.19.66,3.84,3.84,0,0,0-.1,3.31,2.49,2.49,0,0,1,0,.77C31.25,294.48,32.35,296,30.41,296.47Z" transform="translate(-3.36 -151.7)" style="fill:#1d1d1b;fill-rule:evenodd"></path>
    <path d="M46.12,194.37c-1.45-.2-2.66-.66-2.7-2.37l2-1.57c1.49.82,2.4-.53,3.39-1a2,2,0,0,1,2.31.23C49.4,191.16,48.12,193.11,46.12,194.37Z" transform="translate(-3.36 -151.7)" style="fill:#1d1d1b;fill-rule:evenodd"></path>
    <path d="M29.06,324.59c-.62,0-1.18-.21-1.37-.89a.74.74,0,0,0-.78-.5,2.23,2.23,0,0,0,.71-2.19c-.2-1.3-.67-1.54-1.91-.87-.3.17-.54.44-.83.12-.15-.16-.14-.44-.21-.67-.24-.79,1.17-1,.71-1.88l1.6-1a.72.72,0,0,1,.62-.22c1.51,1,2,2.76,3.25,4,1,1-.57,2-.79,3.06C29.64,323.79,29.48,324.29,29.06,324.59Z" transform="translate(-3.36 -151.7)" style="fill:#1d1d1b;fill-rule:evenodd"></path>
    <path d="M162.62,342.7l-8.36,2.62-.28-.16a1.43,1.43,0,0,1-.47-.8.73.73,0,0,1,.19-.6c2.07-.53,3.61-2,5.61-2.75a2.71,2.71,0,0,1,2.55.12C162.49,341.48,162.51,342.12,162.62,342.7Z" transform="translate(-3.36 -151.7)" style="fill:#1d1d1b;fill-rule:evenodd"></path>
    <path d="M66.19,334.88a2.06,2.06,0,0,1-1.16.64,49.38,49.38,0,0,1-5.93-2.8,10.6,10.6,0,0,1-3.69-3.18,1.23,1.23,0,0,1,0-1.53c2.49-.6,3.3,1.78,4.93,2.65a12.28,12.28,0,0,0,3,1.26C64.67,332.49,66.33,332.91,66.19,334.88Z" transform="translate(-3.36 -151.7)" style="fill:#1d1d1b;fill-rule:evenodd"></path>
    <path d="M171.28,339.21a67.67,67.67,0,0,1-6.56,3.09,3.19,3.19,0,0,1-1.73.28c-.5-.62-.08-1.31-.12-2l3-2.62c1.27-.18,2.55-.27,3.79-.54A1.94,1.94,0,0,1,171.28,339.21Z" transform="translate(-3.36 -151.7)" style="fill:#1d1d1b;fill-rule:evenodd"></path>
    <path d="M103.18,349.94a3.26,3.26,0,0,1,1.72-2.28,2.86,2.86,0,0,1,2.9,1.95,1.59,1.59,0,0,1-.28,1.3,1.69,1.69,0,0,1-1.2.66C105.13,351.81,103.33,350.87,103.18,349.94Z" transform="translate(-3.36 -151.7)" style="fill:#1d1d1b;fill-rule:evenodd"></path>
    <path d="M28.54,264c1.36.07,2.51,1,2.46,2a2.45,2.45,0,0,1-2.33,1.89,2.52,2.52,0,0,1-2.07-2.17,1.61,1.61,0,0,1,.53-1.31A1.75,1.75,0,0,1,28.54,264Z" transform="translate(-3.36 -151.7)" style="fill:#1d1d1b;fill-rule:evenodd"></path>
    <path d="M133.14,349.29c1.38-2.24,3.93-2.82,7-1.5-1.31,1.78-3.17,2.08-5.18,2.06C134.22,350,133.36,350.64,133.14,349.29Z" transform="translate(-3.36 -151.7)" style="fill:#1d1d1b;fill-rule:evenodd"></path>
    <path d="M199.45,186.75c-1.12.08-2.31.3-2.8-1.06-.18-.51-.78-1-.29-1.59a2.25,2.25,0,0,1,2-.81c1.44.17,2.14,1.27,2.93,2.22.37.43,0,.76-.39,1A2.82,2.82,0,0,1,199.45,186.75Z" transform="translate(-3.36 -151.7)" style="fill:#1d1d1b;fill-rule:evenodd"></path>
    <path d="M30.07,323.52c0-.4-.07-.89.12-1.18.66-1,.34-1.23-.61-1.9a5.79,5.79,0,0,1-2-3.75c1.15-.62,2.24-1.41,3.69-1.21a1.24,1.24,0,0,1,.56.45c-1.85,1.57-.37,3.25-.18,4.88,0,.21.25.41.39.62C31,321.87,31,323.1,30.07,323.52Z" transform="translate(-3.36 -151.7)" style="fill:#1d1d1b;fill-rule:evenodd"></path>
    <path d="M30.94,288.91c.41-1.32-.2-2.71.29-4,.8.1,1.23,1,2.13.91l0,0a3.62,3.62,0,0,0,1.5,2.92c.68.6,1.32,1.24,2,1.86a1.46,1.46,0,0,0-.48,1.06.83.83,0,0,1-.62.23,1.94,1.94,0,0,1-.61-.26,3,3,0,0,0-1.14-.63C32.8,290.51,32.08,289.41,30.94,288.91Z" transform="translate(-3.36 -151.7)" style="fill:#1d1d1b;fill-rule:evenodd"></path>
    <path d="M27.48,315.18l-1.11-1.47a2.92,2.92,0,0,1,3-2.52,2.57,2.57,0,0,1,2.57,2.56c-.4,1.5-1.84,1.78-3,2.34C27.91,316.59,27.8,315.7,27.48,315.18Z" transform="translate(-3.36 -151.7)" style="fill:#1d1d1b;fill-rule:evenodd"></path>
    <path d="M152.46,330.92a1.76,1.76,0,0,1-1.9-1.88,1.54,1.54,0,0,1,1.59-1.83,1.85,1.85,0,0,1,2.22,1.83C154.39,330.25,153.73,330.84,152.46,330.92Z" transform="translate(-3.36 -151.7)" style="fill:#1d1d1b;fill-rule:evenodd"></path>
    <path d="M171.28,339.21c-1,0-1.23-1-1.82-1.49l-.33-.24a1.62,1.62,0,0,1-.32-.75,1.71,1.71,0,0,1,.16-.8c1-1.32,2.27-.55,3.47-.4a2.08,2.08,0,0,1,.2,3A2.1,2.1,0,0,1,171.28,339.21Z" transform="translate(-3.36 -151.7)" style="fill:#1d1d1b;fill-rule:evenodd"></path>
    <path d="M86.55,331.15c1.52-.08,2,.27,2,1.58s-.68,1.9-2.09,1.91a1.72,1.72,0,0,1-1.22-.57,1.58,1.58,0,0,1-.4-1.25C84.91,331.83,85.32,331.05,86.55,331.15Z" transform="translate(-3.36 -151.7)" style="fill:#1d1d1b;fill-rule:evenodd"></path>
    <path d="M212.68,294.5c.75.81.38,1.66.43,2.45a1.52,1.52,0,0,1-1.31,1.59,2.53,2.53,0,0,1-2.15-.53c-.45-.3-.28-.71,0-1.08A6.9,6.9,0,0,1,212.68,294.5Z" transform="translate(-3.36 -151.7)" style="fill:#1d1d1b;fill-rule:evenodd"></path>
    <path d="M31.49,313.94c-1.23-2.77-2.43-3-4.48-.59a2.15,2.15,0,0,1-.61.38c-.55-1.45.27-2.14,1.52-2.67s2.07-.82,3.21.32c1.9,1.89,2.12,2.51.66,4.57h-.62a.69.69,0,0,1-.33-.45,3.36,3.36,0,0,1,.24-.82A1.64,1.64,0,0,1,31.49,313.94Z" transform="translate(-3.36 -151.7)" style="fill:#1d1d1b;fill-rule:evenodd"></path>
    <path d="M133.14,349.29a2.35,2.35,0,0,0,1.82.56,19.83,19.83,0,0,1-7.88.93c.41-.69.92-1.37-.1-2,1.06-.23,2.18.39,3.23-.24.46-.28.76,0,1,.38C131.75,349.58,132.49,349.31,133.14,349.29Z" transform="translate(-3.36 -151.7)" style="fill:#1d1d1b;fill-rule:evenodd"></path>
    <path d="M28.83,276.92A1.93,1.93,0,0,1,27,275.14a1.69,1.69,0,0,1,1.58-1.66c.93-.11,2.09,1,1.93,1.88A1.93,1.93,0,0,1,28.83,276.92Z" transform="translate(-3.36 -151.7)" style="fill:#1d1d1b;fill-rule:evenodd"></path>
    <path d="M172.42,335.55c-1,.3-2.53-.42-3,1.19-.76.53-1.29.29-1.65-.48a1.61,1.61,0,0,1,.74-2.33,1.54,1.54,0,0,1,1.15-.22,1.47,1.47,0,0,1,1,.66c1,1.26,1.57-.06,2.3-.36C172.71,334.51,172.58,335,172.42,335.55Z" transform="translate(-3.36 -151.7)" style="fill:#1d1d1b;fill-rule:evenodd"></path>
    <path d="M219.88,248.12c.77.56,2.06-.42,2.51.52.61,1.28-1,1.23-1.6,1.77s0,1.91-1.18,2.25c-.74-.46-1.17-1-.47-1.78A2.83,2.83,0,0,0,219.88,248.12Z" transform="translate(-3.36 -151.7)" style="fill:#1d1d1b;fill-rule:evenodd"></path>
    <path d="M192.33,176.19c-.68.7-1.44.21-2.18.17-1-.06-1.55.07-1.28,1.4a12.24,12.24,0,0,1,.61,3.12l-.53-.54a.72.72,0,0,1-.31-.4l-.16-.19c-.73-.9-1.78-1.78-.79-3a2.8,2.8,0,0,1,3.64-.87l.58.29A.61.61,0,0,1,192.33,176.19Z" transform="translate(-3.36 -151.7)" style="fill:#1d1d1b;fill-rule:evenodd"></path>
    <path d="M129.58,155.39a2.69,2.69,0,0,1-2.06.6,2.63,2.63,0,0,0-2,.64l-3.08.17a1.35,1.35,0,0,0-.58-1c.24-1,.78-1.71,1.76-.89s2.25.59,3.42.59a1.67,1.67,0,0,1,2.31-.45Z" transform="translate(-3.36 -151.7)" style="fill:#1d1d1b;fill-rule:evenodd"></path>
    <path d="M82.8,335.87l-.92.07c-2,1.24-2.76.4-2.95-1.52a1.08,1.08,0,0,1,.76-1A4.37,4.37,0,0,1,82.8,335C83.2,335.25,83.22,335.55,82.8,335.87Z" transform="translate(-3.36 -151.7)" style="fill:#1d1d1b;fill-rule:evenodd"></path>
    <path d="M31.5,313.94c0,.32,0,.64.06.95-.16.19-.29.39-.46.56a2,2,0,0,0,0,.48c-1.24.14-2.2,1.49-3.63.76H27a2.87,2.87,0,0,0,.53-1.51c.34.19.58.62,1.11.32C29.55,315,30.53,314.46,31.5,313.94Z" transform="translate(-3.36 -151.7)" style="fill:#1d1d1b;fill-rule:evenodd"></path>
    <path d="M133.1,153.08c-.53,1.68-1.85,2.2-3.52,2.28v0c-.44-.66.06-1.06.44-1.5,0-.31,0-.62-.07-.94C130.94,153.61,132.07,152.53,133.1,153.08Z" transform="translate(-3.36 -151.7)" style="fill:#1d1d1b;fill-rule:evenodd"></path>
    <path d="M154.26,345.32c-1.78.8-3.69.4-6.11.73,1.12-1,1.8-1.52,2.81-1.37a2.2,2.2,0,0,0,1.66-.52l.32.08a13.79,13.79,0,0,1,1.38.85Z" transform="translate(-3.36 -151.7)" style="fill:#1d1d1b;fill-rule:evenodd"></path>
    <path d="M167.74,336.25l1.65.48a2,2,0,0,0,0,.49.29.29,0,0,0-.13.27.3.3,0,0,0,.17.24c-1.06,1.78-2.35.72-3.59.27.49-.38.82-.94,1.47-1.14.13-.21.35-.34.44-.59Z" transform="translate(-3.36 -151.7)" style="fill:#1d1d1b;fill-rule:evenodd"></path>
    <path d="M177.83,170.48c-.51-.08-.9-.32-.87-.78a1.71,1.71,0,0,1,1.6-1.62.69.69,0,0,1,.6.18.64.64,0,0,1,.17.57A1.68,1.68,0,0,1,177.83,170.48Z" transform="translate(-3.36 -151.7)" style="fill:#1d1d1b;fill-rule:evenodd"></path>
    <path d="M7.05,320.84l4.17.34v0c-.24.12-.34.37-.55.51a3.18,3.18,0,0,1-2.55.67C7.19,322.29,6.86,321.68,7.05,320.84Z" transform="translate(-3.36 -151.7)" style="fill:#1d1d1b;fill-rule:evenodd"></path>
    <path d="M35.09,305.55a6.64,6.64,0,0,0,1.62,1.82A2.67,2.67,0,0,1,38,309.62c-1.07-.75-1.77-1.87-3.12-2.37S34.24,306,35.09,305.55Z" transform="translate(-3.36 -151.7)" style="fill:#1d1d1b;fill-rule:evenodd"></path>
    <path d="M34,206.11l1.1,1c-.45,1.28-1.74,1.85-2.64,3.21a2.13,2.13,0,0,1,.81-2.5A1.89,1.89,0,0,0,34,206.11Z" transform="translate(-3.36 -151.7)" style="fill:#1d1d1b;fill-rule:evenodd"></path>
    <path d="M83.45,328.83c.67,0,1.14.24,1.17,1s-.17,1.14-1,1.18a1.13,1.13,0,0,1-.85-.22,1,1,0,0,1-.38-.76.87.87,0,0,1,.18-.83A1,1,0,0,1,83.45,328.83Z" transform="translate(-3.36 -151.7)" style="fill:#1d1d1b;fill-rule:evenodd"></path>
    <path d="M29.72,286c0,1.51-.09,3-1.45,4.08A3.22,3.22,0,0,1,29.72,286Z" transform="translate(-3.36 -151.7)" style="fill:#1d1d1b;fill-rule:evenodd"></path>
    <path d="M41.64,282.48c-.49-.1-1.07-.08-1.2-.72a1,1,0,0,1,1.62-1,1.17,1.17,0,0,1,.22,1.36A.92.92,0,0,1,41.64,282.48Z" transform="translate(-3.36 -151.7)" style="fill:#1d1d1b;fill-rule:evenodd"></path>
    <path d="M162.87,340.61c1.32.6.9,1.27.12,2a.61.61,0,0,1-.37.12c-1.12-.12-1.08-.77-.76-1.55.28-.3.76-.22,1-.56Z" transform="translate(-3.36 -151.7)" style="fill:#1d1d1b;fill-rule:evenodd"></path>
    <path d="M58.12,306.21a.85.85,0,0,1-.57-.18.72.72,0,0,1-.27-.52.77.77,0,0,1,.11-.69.83.83,0,0,1,.64-.33c.61-.05.85.44.86.93a.76.76,0,0,1-.21.55A.8.8,0,0,1,58.12,306.21Z" transform="translate(-3.36 -151.7)" style="fill:#1d1d1b;fill-rule:evenodd"></path>
    <path d="M51.69,333.8a.83.83,0,0,1-.2.66.86.86,0,0,1-.64.28.76.76,0,0,1-.59-.12.72.72,0,0,1-.3-.51c-.12-.5,0-1,.62-1.1A1,1,0,0,1,51.69,333.8Z" transform="translate(-3.36 -151.7)" style="fill:#1d1d1b;fill-rule:evenodd"></path>
    <path d="M12.26,321.6c.93,0,2.09-.6,2.55.8C13.78,322.66,12.6,323.36,12.26,321.6Z" transform="translate(-3.36 -151.7)" style="fill:#1d1d1b;fill-rule:evenodd"></path>
    <path d="M79.69,333.45l-.57.67a.36.36,0,0,1-.34.12c-.11,0-.17-.06-.17-.09-.12-.69-2-1.36,0-2Z" transform="translate(-3.36 -151.7)" style="fill:#1d1d1b;fill-rule:evenodd"></path>
    <path d="M32.41,182.74c0,.35-.13.69-.56.68a.84.84,0,0,1-.85-.77.56.56,0,0,1,.12-.58.6.6,0,0,1,.58-.2C32.21,181.9,32.33,182.34,32.41,182.74Z" transform="translate(-3.36 -151.7)" style="fill:#1d1d1b;fill-rule:evenodd"></path>
    <path d="M220.85,239c1.24,1.4,1.24,1.4.13,2.62l.05,0-.42-.49a2.55,2.55,0,0,1-.14-1.57c.14-.17.27-.35.39-.52Z" transform="translate(-3.36 -151.7)" style="fill:#1d1d1b;fill-rule:evenodd"></path>
    <path d="M61.63,175.5A3.17,3.17,0,0,1,59,177.55C59.34,176.19,60.7,176.09,61.63,175.5Z" transform="translate(-3.36 -151.7)" style="fill:#1d1d1b;fill-rule:evenodd"></path>
    <path d="M82.8,335.87V335c.71.32.62,1.51,1.72,1.42C83.68,337,83.14,336.77,82.8,335.87Z" transform="translate(-3.36 -151.7)" style="fill:#1d1d1b;fill-rule:evenodd"></path>
    <path d="M113.33,350.45a.51.51,0,0,1-.56-.36c0-.25.15-.43.42-.46a.51.51,0,0,1,.36.06.47.47,0,0,1,.2.28C113.8,350.25,113.61,350.41,113.33,350.45Z" transform="translate(-3.36 -151.7)" style="fill:#1d1d1b;fill-rule:evenodd"></path>
    <path d="M177,332.73c-.71.79-1.68.6-2.59.6C175.11,332.69,176.12,333,177,332.73Z" transform="translate(-3.36 -151.7)" style="fill:#1d1d1b;fill-rule:evenodd"></path>
    <path d="M221.77,227.89c-.22.21-.54.63-.67,0a1.69,1.69,0,0,1,.42-1.4C221.6,227,221.69,227.43,221.77,227.89Z" transform="translate(-3.36 -151.7)" style="fill:#1d1d1b;fill-rule:evenodd"></path>
    <path d="M51.13,189.64c0-.84.54-1.09,1.29-1.14A1.47,1.47,0,0,1,51.13,189.64Z" transform="translate(-3.36 -151.7)" style="fill:#1d1d1b;fill-rule:evenodd"></path>
    <path d="M129.46,152.74c-.49.74-1.09.39-1.68.17A1.26,1.26,0,0,1,129.46,152.74Z" transform="translate(-3.36 -151.7)" style="fill:#1d1d1b;fill-rule:evenodd"></path>
    <path d="M77.14,327.72c-.77-.75,0-1.13.41-1.58C77.76,326.75,77.37,327.21,77.14,327.72Z" transform="translate(-3.36 -151.7)" style="fill:#1d1d1b;fill-rule:evenodd"></path>
    <path d="M88.13,343.43l1.51-.93C89.53,343.41,88.85,343.46,88.13,343.43Z" transform="translate(-3.36 -151.7)" style="fill:#1d1d1b;fill-rule:evenodd"></path>
    <path d="M124.17,152.61a1.33,1.33,0,0,1-2,.25Z" transform="translate(-3.36 -151.7)" style="fill:#1d1d1b;fill-rule:evenodd"></path>
    <path d="M173.94,334.45a1.58,1.58,0,0,0-1.1-.45c.36-.59.94-.59,1.53-.59A1.33,1.33,0,0,1,173.94,334.45Z" transform="translate(-3.36 -151.7)" style="fill:#1d1d1b;fill-rule:evenodd"></path>
    <path d="M60.93,180.57a1.71,1.71,0,0,1,1.39-1.18A2,2,0,0,1,60.93,180.57Z" transform="translate(-3.36 -151.7)" style="fill:#1d1d1b;fill-rule:evenodd"></path>
    <path d="M225.42,245.26a.91.91,0,0,1-.09-1.5C225.29,244.29,225.88,244.73,225.42,245.26Z" transform="translate(-3.36 -151.7)" style="fill:#1d1d1b;fill-rule:evenodd"></path>
    <path d="M31.6,323.82a1.71,1.71,0,0,1,.39-1.39C32,322.93,32.14,323.46,31.6,323.82Z" transform="translate(-3.36 -151.7)" style="fill:#1d1d1b;fill-rule:evenodd"></path>
    <path d="M55.33,328c0,.51,0,1,.05,1.53-.25-.48-.5-1-.76-1.43Z" transform="translate(-3.36 -151.7)" style="fill:#1d1d1b;fill-rule:evenodd"></path>
    <path d="M179.14,334.61a1.13,1.13,0,0,1,.52-1A1,1,0,0,1,179.14,334.61Z" transform="translate(-3.36 -151.7)" style="fill:#1d1d1b;fill-rule:evenodd"></path>
    <path d="M125.59,350.78a.61.61,0,0,1,1,0Z" transform="translate(-3.36 -151.7)" style="fill:#1d1d1b;fill-rule:evenodd"></path>
    <path d="M162.88,340.61a1.25,1.25,0,0,1-1,.55A1.21,1.21,0,0,1,162.88,340.61Z" transform="translate(-3.36 -151.7)" style="fill:#1d1d1b;fill-rule:evenodd"></path>
    <path d="M153.7,343.79a1.5,1.5,0,0,1,0,.3.63.63,0,0,1-.9.21l-.17-.14A1.41,1.41,0,0,1,153.7,343.79Z" transform="translate(-3.36 -151.7)" style="fill:#1d1d1b;fill-rule:evenodd"></path>
    <path d="M217.41,224.24a1.33,1.33,0,0,1,.47,1.08A1.34,1.34,0,0,1,217.41,224.24Z" transform="translate(-3.36 -151.7)" style="fill:#1d1d1b;fill-rule:evenodd"></path>
    <path d="M191.67,220.41v.16a.25.25,0,0,1-.19.05c-.21-.08-.21-.18,0-.26C191.53,220.34,191.6,220.39,191.67,220.41Z" transform="translate(-3.36 -151.7)" style="fill:#1d1d1b;fill-rule:evenodd"></path>
    <path d="M37.8,291a1.32,1.32,0,0,1-1-.52A1.3,1.3,0,0,1,37.8,291Z" transform="translate(-3.36 -151.7)" style="fill:#1d1d1b;fill-rule:evenodd"></path>
    <path d="M39.61,291.84a1.32,1.32,0,0,1-1.23-.43A1.64,1.64,0,0,1,39.61,291.84Z" transform="translate(-3.36 -151.7)" style="fill:#1d1d1b;fill-rule:evenodd"></path>
    <path d="M10.65,321.65l.55-.51Z" transform="translate(-3.36 -151.7)" style="fill:#1d1d1b;fill-rule:evenodd"></path>
    <path d="M32.1,322c0-.19-.08-.38-.12-.59A.36.36,0,0,1,32.1,322Z" transform="translate(-3.36 -151.7)" style="fill:#1d1d1b;fill-rule:evenodd"></path>
    <path d="M30.68,284.89l-.61.55A.65.65,0,0,1,30.68,284.89Z" transform="translate(-3.36 -151.7)" style="fill:#1d1d1b;fill-rule:evenodd"></path>
    <path d="M31.22,284.87h-.57C30.82,284.54,31,284.42,31.22,284.87Z" transform="translate(-3.36 -151.7)" style="fill:#1d1d1b;fill-rule:evenodd"></path>
    <path d="M38.45,291.45l-.62-.4A.7.7,0,0,1,38.45,291.45Z" transform="translate(-3.36 -151.7)" style="fill:#1d1d1b;fill-rule:evenodd"></path>
    <path d="M221.05,242l-.27.49Z" transform="translate(-3.36 -151.7)" style="fill:#1d1d1b;fill-rule:evenodd"></path>
    <path d="M220.61,241.08l.42.49Z" transform="translate(-3.36 -151.7)" style="fill:#1d1d1b;fill-rule:evenodd"></path>
    <path d="M220.86,239l-.4.52Z" transform="translate(-3.36 -151.7)" style="fill:#1d1d1b;fill-rule:evenodd"></path>
    <path d="M188.66,179.94l.31.4Z" transform="translate(-3.36 -151.7)" style="fill:#1d1d1b;fill-rule:evenodd"></path>
    <path d="M191.94,176.13l-.58-.29Z" transform="translate(-3.36 -151.7)" style="fill:#1d1d1b;fill-rule:evenodd"></path>
    <path d="M218.65,267.71a.29.29,0,0,1,.15.22.28.28,0,0,1-.1.24l-.06-.22Z" transform="translate(-3.36 -151.7)" style="fill:#1d1d1b;fill-rule:evenodd"></path>
    <path d="M167.79,336.27l-.45.59Z" transform="translate(-3.36 -151.7)" style="fill:#1d1d1b;fill-rule:evenodd"></path>
    <path d="M221.59,267.44a9.91,9.91,0,0,1-.8-4.11,1.94,1.94,0,0,1,.87-1.72,4.54,4.54,0,0,0,1.56-1.61c.25-.44.53-1,1.15-.59a1.2,1.2,0,0,1,.4,1.34c0,.16-.06.38-.17.47-1.85,1.35-2,3.36-2.3,5.3C222.26,266.74,222,266.91,221.59,267.44Z" transform="translate(-3.36 -151.7)" style="fill:#1d1d1b;fill-rule:evenodd"></path>
    <path d="M50.06,310.8a5,5,0,0,1,3.22,2.7c.4.94,1.23,1,1.95,1.47s2.35-.23,1.68,1.54a.65.65,0,0,0,.25.4c2,.86,1.94,2.73,2.42,4.34A1.87,1.87,0,0,0,61,323c1,.34,2.07.72,1.73,2s-1.5.68-2.36.68a2.24,2.24,0,0,0-1,.19,1.8,1.8,0,0,1-.68.21l-.37,0a1.79,1.79,0,0,1-.62-.4c-.52-1-1.33-1.84-1.06-3l0-.14a.39.39,0,0,0-.18,0c-1.32.14-1.92,1.68-3.35,1.54a1.58,1.58,0,0,1-.62-.31c-.82-.93-1-2.2-1.76-3.19s-.07-1.82.85-2.43c.91-.87,1.74,0,3.14.23-1.44-1.18-2.34-1.18-3.25-.12-.79.37-1.23,1.18-2.1,1.46-1.57,0-1.53-1-1.41-2.09a21,21,0,0,0-6.78-9.26l-.17-.31a2.13,2.13,0,0,1-.11-.33c0-.11,0-.23,0-.35a2.5,2.5,0,0,1,.07-.67,3.5,3.5,0,0,0-.2-1.32,2,2,0,0,1,.06-.69,1.35,1.35,0,0,1,.4-.59,1.65,1.65,0,0,1,2,.41l.54.47a4.38,4.38,0,0,0,2.3,1.85C48.17,307.38,48.46,309.72,50.06,310.8Z" transform="translate(-3.36 -151.7)" style="fill:#1d1d1b;fill-rule:evenodd"></path>
    <path d="M50.06,310.8c-1.42-.34-2.77-.6-3-2.43-.11-.85-1.23-.79-2-.86-1-.11-2.21,0-1.44-1.64,0-.09-.46-.42-.71-.65-.52-.35-.91-.91-1.65-.89a.28.28,0,0,0-.1.24.26.26,0,0,0,.14.22,5,5,0,0,0,0,.53c-.76,1.73-2.09,2.07-3.24.75-.46-.53-.66-1.29-1.48-1.47l-.12-1.49c-1-1.47-1.42-2.92.31-4.2a1.05,1.05,0,0,1,1.16.3h.15a1.54,1.54,0,0,0,.05-.17A13.1,13.1,0,0,1,39.33,297c-.06-.32.21.08,0-.22-.06.08,0,.18-.1.27a1,1,0,0,1-.9.29c-1.36-.86-2.06-1.78-.36-3,2.62.22,3.27,2.37,4.22,4.15a11.71,11.71,0,0,1,1.26,2.62c.62,2.56,1.92,1.85,3.41.91a7.63,7.63,0,0,1,1.76,2.33,4.53,4.53,0,0,0,2.14,2c.34.23.25.71.61.95l.55.47c.17.18.39.3.55.47a1.39,1.39,0,0,1,.62,1c-.75-.37-1.11.21-1.54.6a.7.7,0,0,1-.3-.6.68.68,0,0,1-.2.6l-.53,0Z" transform="translate(-3.36 -151.7)" style="fill:#1d1d1b;fill-rule:evenodd"></path>
    <path d="M58.83,325.79c.07-.72.3-1.31,1.23-1.19.72.1,1.44.25,2.47.43a3.22,3.22,0,0,0-2.65-1.6,1.39,1.39,0,0,1-1-2.14c.06-.11.45,0,.69,0,.4-.11,1.08-1.07,1.08-.37,0,2.11,1.16,1.56,2.33,1.27.32-.08.62-.32,1-.15.29.4-.08.8,0,1.19.13.65.34,1.05,1.23.71,1.89-.75,2.47-.39,2.79,1.48.07.48.08,1,.61,1.32,1.07-.27.29-1.36,1.05-2,0,2.1.39,3.89,2.47,4.81a1.28,1.28,0,0,1,.31,1.31c-1.47,1.46-3.08,2.5-5.24,1.28-1.32-.75-3-.72-4.22-1.6-1.09-2.37,1.75-1.3,2.1-2.18a5.33,5.33,0,0,0-3.54,2.37,2.51,2.51,0,0,1-1.42.3C58.08,329.63,58.66,327.66,58.83,325.79Z" transform="translate(-3.36 -151.7)" style="fill:#1d1d1b;fill-rule:evenodd"></path>
    <path d="M51,309.73c0-.19,0-.49.31-.43.08,0,.12.26.18.4Z" transform="translate(-3.36 -151.7)" style="fill:#1d1d1b;fill-rule:evenodd"></path>
    <path d="M9.53,317c-1.61.07-2.33-1-1.66-2.51a5.49,5.49,0,0,1,4.24-2.42,2.54,2.54,0,0,1,2.18,2.61c-.06.44-.26,1-.62,1C12.08,315.64,11.13,317.28,9.53,317Z" transform="translate(-3.36 -151.7)" style="fill:#1d1d1b;fill-rule:evenodd"></path>
    <path d="M14.69,311.41c2.68,1.51,3.47,2.89,2.7,5.43-.43,1.41-2,2.22-2.63,3.6a.5.5,0,0,1-.46.05c-.17-.15-.42-.48-.36-.59.61-.89.41-2,.73-2.86.95-2.58.93-3.56-1-5.59a.74.74,0,0,1,.51-.23A.72.72,0,0,1,14.69,311.41Z" transform="translate(-3.36 -151.7)" style="fill:#1d1d1b;fill-rule:evenodd"></path>
    <path d="M14.69,311.41l-1,.07c-.28-.16-.67-.29-.55-.66s.52-.33.84-.26S14.57,311,14.69,311.41Z" transform="translate(-3.36 -151.7)" style="fill:#1d1d1b;fill-rule:evenodd"></path>
    <path d="M6.94,312.37l.49.11C7.17,312.84,7.1,312.42,6.94,312.37Z" transform="translate(-3.36 -151.7)" style="fill:#1d1d1b;fill-rule:evenodd"></path>
    <path d="M224.68,243l.16-.06v.15Z" transform="translate(-3.36 -151.7)" style="fill:#1d1d1b;fill-rule:evenodd"></path>
    <path d="M223.27,243.88q-.66-.45-.06-1c0,.33,0,.66.06,1Z" transform="translate(-3.36 -151.7)" style="fill:#1d1d1b;fill-rule:evenodd"></path>
    <path d="M60.19,330.72a1.51,1.51,0,0,1,1-.56,2.53,2.53,0,0,0,2.07-.12,2.62,2.62,0,0,0,2,.18c.31-.13.9-.28,1-.18.57.89,1.1,1.75,2.43,1.19.09.29-.13.66.25.89.47-.16.5-.59.69-1,.46-.79.93-1.25,1.65-.2.24.35.62.16.94,0,.1-.19.21-.26.33-.2s.17.1.18.16a11.61,11.61,0,0,0-.73,4.59.3.3,0,0,1,0,.47c-2.09.35-3.86-.85-5.81-1.14-1.67-2-4.47-2.17-6.49-3.61C59.72,331,60,330.85,60.19,330.72Z" transform="translate(-3.36 -151.7)" style="fill:#1d1d1b;fill-rule:evenodd"></path>
    <path d="M78.61,334.15h.51c.54,1.13,1.14,2.2,2.76,1.82.44,1.23.45,2.53,2.14,3.24,1.32.6,1.29,2.19.84,3.56l-.42,0c-.32-.24-.81-.11-1.1-.44-1.44-1.36-3.54-1.13-5.21-2-.77-.41-1.62-.6-1.85-1.53.89-1.41.25-3.23,1.32-4.59Z" transform="translate(-3.36 -151.7)" style="fill:#1d1d1b;fill-rule:evenodd"></path>
    <path d="M77.6,334.2c.36,1.45.92,2.9-.24,4.29a1,1,0,0,1-1.09.3A6.41,6.41,0,0,1,73.58,337a1.9,1.9,0,0,0-.54-.48c-.26-.32-.77-.18-1-.49a2.53,2.53,0,0,0,0-.47c.25-.33.44-.85.76-1,1.51-.49,1.93-1.44,1.17-2.88,2-.23,2.11,1.49,3.15,2,.19.14.34.33.54.47Z" transform="translate(-3.36 -151.7)" style="fill:#1d1d1b;fill-rule:evenodd"></path>
    <path d="M72.7,331l-.51,0c0-.5-.07-1-.09-1.5l1.06.44Z" transform="translate(-3.36 -151.7)" style="fill:#1d1d1b;fill-rule:evenodd"></path>
    <path d="M77.59,334.19l-.54-.47Z" transform="translate(-3.36 -151.7)" style="fill:#1d1d1b;fill-rule:evenodd"></path>
    <path d="M111.45,156.93a3.71,3.71,0,0,1-1.23-.31c-.73-.46-.62-1.66.13-1.64,1.24,0,1.82-1.19,3-1.14a3.84,3.84,0,0,0,1.64,1.39,1,1,0,0,1,.39.71,1,1,0,0,1-.29.77,4.19,4.19,0,0,0-.5,0c-.7-.08-1.35.64-2.08.14a.71.71,0,0,0-.53-.2.73.73,0,0,0-.51.26Z" transform="translate(-3.36 -151.7)" style="fill:#1d1d1b;fill-rule:evenodd"></path>
    <path d="M115.07,156.71c0-.5-.07-1-.1-1.48l.54,0c.58-.36.76.17,1.06.44l.52,0C116.85,156.69,116.12,157,115.07,156.71Z" transform="translate(-3.36 -151.7)" style="fill:#1d1d1b;fill-rule:evenodd"></path>
    <path d="M112.49,156.88c.69,0,1.33-.75,2.08-.14a1.41,1.41,0,0,1-1,.53A1.36,1.36,0,0,1,112.49,156.88Z" transform="translate(-3.36 -151.7)" style="fill:#1d1d1b;fill-rule:evenodd"></path>
    <path d="M105.11,156.26c.15.13.39.2.31.46-.06,0-.14,0-.16-.05l-.15-.41Z" transform="translate(-3.36 -151.7)" style="fill:#1d1d1b;fill-rule:evenodd"></path>
    <path d="M111.45,156.93a.62.62,0,0,1,.5-.3.65.65,0,0,1,.54.24Z" transform="translate(-3.36 -151.7)" style="fill:#1d1d1b;fill-rule:evenodd"></path>
    <path d="M117.58,155.08l.54.46Z" transform="translate(-3.36 -151.7)" style="fill:#1d1d1b;fill-rule:evenodd"></path>
    <path d="M119.2,156l.56.45Z" transform="translate(-3.36 -151.7)" style="fill:#1d1d1b;fill-rule:evenodd"></path>
    <path d="M120.25,155.91a2.07,2.07,0,0,1,.34-.15s.11.08.16.12Z" transform="translate(-3.36 -151.7)" style="fill:#1d1d1b;fill-rule:evenodd"></path>
    <path d="M120.75,155.88l.56.46Z" transform="translate(-3.36 -151.7)" style="fill:#1d1d1b;fill-rule:evenodd"></path>
    <path d="M37.32,299.05c-.57,1.18-1.44,2.36-.21,3.66l-.61.4c-1.93-.92-3.27-2.58-5-3.73a3.12,3.12,0,0,1-1.1-2.91c.81-1.12.19-2.37.33-3.55,1.55-.93,3.34-1,5-1.31l.53,0c.29.3.78.15,1.07.44a1.45,1.45,0,0,1-.24,2.37c-.7.59-1.23,1.35-2,1.9l-.39.23.42-.19C37.26,296.24,37.46,297.51,37.32,299.05Z" transform="translate(-3.36 -151.7)" style="fill:#1d1d1b;fill-rule:evenodd"></path>
    <path d="M41.54,307.81c.37.32.92,1,1.1.92,1.91-.85,1.84.34,2,1.56a3.11,3.11,0,0,0,1.18,1.57,11.19,11.19,0,0,1,3.08,5.52c-1.19.36-2.36,1-3.62.22a6.73,6.73,0,0,0-2.81-2.83,2.24,2.24,0,0,0-.22-2.44C41.43,311.08,40,309.56,41.54,307.81Z" transform="translate(-3.36 -151.7)" style="fill:#1d1d1b;fill-rule:evenodd"></path>
    <path d="M41.54,307.81a1.42,1.42,0,0,0,.17,1.38c.41.65,1.78,1.08.62,2.2-.21.21.18.37.36.54,1.47,1.48,1.47,1.48-.23,2.84a46.43,46.43,0,0,0-4.76-8c-.46-.69-1.11-1.25-1.08-2.15a2.4,2.4,0,0,0,1.68-1.25c.5,1-.62,2.16.86,2.62a1.8,1.8,0,0,0,2.21-.64,1.71,1.71,0,0,1,.61,1.46c-.17.17-.31.36-.48.53a.3.3,0,0,0-.12.26.29.29,0,0,0,.16.24Z" transform="translate(-3.36 -151.7)" style="fill:#1d1d1b;fill-rule:evenodd"></path>
    <path d="M45.29,317.6c1.2-.32,2.34-1.34,3.63-.22.12.68-.88,1.71.62,2,2.06.12.65,2.19,1.75,2.85a2,2,0,0,1,.48.4c.27.48.78.7,1.17,1.05s.89.6.51,1.13a1.39,1.39,0,0,1-.88.65,1.44,1.44,0,0,1-1.09-.18l-.54-.47-.54-.48c-.17-.16-.38-.3-.56-.46h-.5l-.58-.42A13,13,0,0,1,45.29,317.6Z" transform="translate(-3.36 -151.7)" style="fill:#1d1d1b;fill-rule:evenodd"></path>
    <path d="M60.19,330.72l-.49.54L55.33,328c-.16-.88-.95-1.11-1.63-1.44-.28-1.91.17-2.21,2.32-1.62.17.13.3.36.61.21,1-.88,1.33,0,1.7.66.12.12.24.16.35.1s.17-.09.17-.14a2.67,2.67,0,0,1,.69,2.46A2.67,2.67,0,0,0,60.19,330.72Z" transform="translate(-3.36 -151.7)" style="fill:#1d1d1b;fill-rule:evenodd"></path>
    <path d="M56.24,326c-1.52-1.26-1.85-1.19-2.54.62l-2.19-1.34c.76-.3,2-.23,1.46-1.6,1.85.19.53-1.66,1.61-2.16.7.16,1.45,1.11,2.46.42.31,1.35,1.24,2.52,1.3,3.93C57.56,324.88,56.93,325.86,56.24,326Z" transform="translate(-3.36 -151.7)" style="fill:#1d1d1b;fill-rule:evenodd"></path>
    <path d="M48.77,323.42l.57.42Z" transform="translate(-3.36 -151.7)" style="fill:#1d1d1b;fill-rule:evenodd"></path>
    <path d="M49.85,323.84l.56.46Z" transform="translate(-3.36 -151.7)" style="fill:#1d1d1b;fill-rule:evenodd"></path>
    <path d="M50.4,324.29l.55.46Z" transform="translate(-3.36 -151.7)" style="fill:#1d1d1b;fill-rule:evenodd"></path>
    <path d="M51,324.76l.54.47Z" transform="translate(-3.36 -151.7)" style="fill:#1d1d1b;fill-rule:evenodd"></path>
    <path d="M46.9,302a2.12,2.12,0,0,1-.51,1.61c-.47.47-.93,1.18-1.69.77s-2.29-.75-1.93-1.94c.62-2.12-.85-1.36-1.73-1.37-.58-1,1.35-1.45.54-2.17-1.1-1-.81-2.78-2.36-3.41a2.32,2.32,0,0,1-1.14-.95c-.16-.45,0-.63.49-.55a.32.32,0,0,0,.34.1c.12-.05.17-.09.17-.13a1.2,1.2,0,0,1,1.55-.07c.62,2.28,2.67,3.47,4.13,5.11A9.32,9.32,0,0,1,46.9,302Z" transform="translate(-3.36 -151.7)" style="fill:#1d1d1b;fill-rule:evenodd"></path>
    <path d="M38.56,294l-.49.55c-.43,1-.47,1.88.69,2.46-.59.76.34,2-.89,2.55l-.55-.46c-.28-.38-.88-.56-.9-1.08,0-1.27-.88-1.32-1.84-1.27a5,5,0,0,0,.31-1.42c-.06-.72.14-1.1.91-1.19,1.3-.13,1.7-.94,1.59-2.08A2,2,0,0,1,38.56,294Z" transform="translate(-3.36 -151.7)" style="fill:#1d1d1b;fill-rule:evenodd"></path>
    <path d="M40.62,293.86l-1.55.07C39.54,293,40.06,293,40.62,293.86Z" transform="translate(-3.36 -151.7)" style="fill:#1d1d1b;fill-rule:evenodd"></path>
    <path d="M37.39,292a1.46,1.46,0,0,1-1.07-.45A1.49,1.49,0,0,1,37.39,292Z" transform="translate(-3.36 -151.7)" style="fill:#1d1d1b;fill-rule:evenodd"></path>
    <path d="M51.39,307.22a1.41,1.41,0,0,1-.62-1A1.33,1.33,0,0,1,51.39,307.22Z" transform="translate(-3.36 -151.7)" style="fill:#1d1d1b;fill-rule:evenodd"></path>
    <path d="M52.48,308.15l-.54-.46Z" transform="translate(-3.36 -151.7)" style="fill:#1d1d1b;fill-rule:evenodd"></path>
    <path d="M39.07,293.93a2.52,2.52,0,0,1-.34.15s-.11-.08-.17-.12Z" transform="translate(-3.36 -151.7)" style="fill:#1d1d1b;fill-rule:evenodd"></path>
    <path d="M187.05,328.12c-.92,0-1.08-.66-1.09-1.37C187.41,326.44,187.52,326.58,187.05,328.12Z" transform="translate(-3.36 -151.7)" style="fill:#1d1d1b;fill-rule:evenodd"></path>
    <path d="M83.34,342.32l1.1.44A1.25,1.25,0,0,1,83.34,342.32Z" transform="translate(-3.36 -151.7)" style="fill:#1d1d1b;fill-rule:evenodd"></path>
    <path d="M72,336a1.27,1.27,0,0,1,1,.49A1.39,1.39,0,0,1,72,336Z" transform="translate(-3.36 -151.7)" style="fill:#1d1d1b;fill-rule:evenodd"></path>
    <path d="M73,336.49l.54.48Z" transform="translate(-3.36 -151.7)" style="fill:#1d1d1b;fill-rule:evenodd"></path>
    <path d="M26.81,325.61c-1.66-.55-2.78-1.1-3.32-2.37-.22-.5-.29-1,.22-1.34s.78.11,1,.48.43.8.91.78C27.88,323.07,26.79,324.4,26.81,325.61Z" transform="translate(-3.36 -151.7)" style="fill:#1d1d1b;fill-rule:evenodd"></path>
    <path d="M29.06,324.59c0-.64-.13-1.4,1-1.08C29.94,324.05,30.07,324.82,29.06,324.59Z" transform="translate(-3.36 -151.7)" style="fill:#1d1d1b;fill-rule:evenodd"></path>
    <path d="M130,153.83c-.15.5-.29,1-.44,1.5l-2.57.17-.21-.15c-.61-.5-2.24-.09-2-1.08.25-1.18,1.71-.72,2.67-.63A15.8,15.8,0,0,0,130,153.83Z" transform="translate(-3.36 -151.7)" style="fill:#1d1d1b;fill-rule:evenodd"></path>
    <path d="M116.57,155.63l-1.06-.44c.1-.19.21-.55.31-.55C116.45,154.66,116.45,155.2,116.57,155.63Z" transform="translate(-3.36 -151.7)" style="fill:#1d1d1b;fill-rule:evenodd"></path>
    <path d="M35.8,291.62c-.27.19-.62.35-.54.75s.75.29.43.65a.75.75,0,0,1-1.14.13c-1.16-1.41-1.58-.56-2,.52a3.64,3.64,0,0,1-.62.74c-.93-.17-.57-1.19-1.17-1.47-.05-.17-.09-.33-.13-.5-.29-1.18.18-2.37.32-3.52.68-.46,1.36-1.14,2,.1a2,2,0,0,0,1.74,1.18,4.57,4.57,0,0,0,1.1.95C35.76,291.31,35.78,291.47,35.8,291.62Z" transform="translate(-3.36 -151.7)" style="fill:#1d1d1b;fill-rule:evenodd"></path>
    <path d="M30.94,288.92a3.89,3.89,0,0,1-.32,3.52A2.83,2.83,0,0,1,30.94,288.92Z" transform="translate(-3.36 -151.7)" style="fill:#1d1d1b;fill-rule:evenodd"></path>
    <path d="M152.79,344.3l.91-.21c.64.07.93.36.61,1C153.58,345.25,152.86,345.37,152.79,344.3Z" transform="translate(-3.36 -151.7)" style="fill:#1d1d1b;fill-rule:evenodd"></path>
    <path d="M164.71,340.72c.15-.37.36-.74.79-.81s.62.24.58.59c0,.51-.54.5-.9.59S164.7,341,164.71,340.72Z" transform="translate(-3.36 -151.7)" style="fill:#1d1d1b;fill-rule:evenodd"></path>
    <path d="M35.75,291.15a1.17,1.17,0,0,1-1.1-.94A1.9,1.9,0,0,1,35.75,291.15Z" transform="translate(-3.36 -151.7)" style="fill:#1d1d1b;fill-rule:evenodd"></path>
    <path d="M169.47,337.73a.31.31,0,0,1-.18-.24.28.28,0,0,1,.14-.27C169.44,337.39,169.46,337.56,169.47,337.73Z" transform="translate(-3.36 -151.7)" style="fill:#1d1d1b;fill-rule:evenodd"></path>
    <path d="M31.1,315.45l.46-.56Z" transform="translate(-3.36 -151.7)" style="fill:#1d1d1b;fill-rule:evenodd"></path>
    <path d="M51.57,318.22c-.33-1.53.82-1.78,1.93-2,.71-.13,2.58,1.57,2.65,2.28a1,1,0,0,1-.82,1.11c-.68.11-1.59.72-2-.29A1.57,1.57,0,0,0,51.57,318.22Z" transform="translate(-3.36 -151.7)" style="fill:#1d1d1b;fill-rule:evenodd"></path>
    <path d="M53,323.64a1.93,1.93,0,0,1-1.59-.4c0-.17.5-.37,0-.49s-1.39.19-1.94-.34c-.23-.22-.52-.67-.08-.78,2.26-.6.08-1.55.24-2.29.2-1.15,1.16-1,2-1.12-.53,1.19-.61,2.21.87,2.8.53.21.85.43.27,1S53,323.1,53,323.64Z" transform="translate(-3.36 -151.7)" style="fill:#1d1d1b;fill-rule:evenodd"></path>
    <path d="M57,321.92c0-.36-.18-.82.34-1,.08,0,.33.13.35.23C57.85,321.69,57.42,321.8,57,321.92Z" transform="translate(-3.36 -151.7)" style="fill:#1d1d1b;fill-rule:evenodd"></path>
    <path d="M58.83,325.8a2.17,2.17,0,0,1-.35.15s-.11-.08-.16-.12Z" transform="translate(-3.36 -151.7)" style="fill:#1d1d1b;fill-rule:evenodd"></path>
    <path d="M41.54,307.81a.28.28,0,0,1-.18-.24.29.29,0,0,1,.14-.26Z" transform="translate(-3.36 -151.7)" style="fill:#1d1d1b;fill-rule:evenodd"></path>
    <path d="M41.32,304.79c-.2-.13-.21-.29,0-.46A3.73,3.73,0,0,1,41.32,304.79Z" transform="translate(-3.36 -151.7)" style="fill:#1d1d1b;fill-rule:evenodd"></path>
    <path d="M41.5,307.31l.48-.53Z" transform="translate(-3.36 -151.7)" style="fill:#1d1d1b;fill-rule:evenodd"></path>
    <path d="M37.87,299.51c.08-.3.34-.74.22-.9-.75-.95.28-1.18.67-1.65l.47-.53c1.1,1.72.08,2.72-1.33,3.56C37.89,299.85,37.88,299.68,37.87,299.51Z" transform="translate(-3.36 -151.7)" style="fill:#1d1d1b;fill-rule:evenodd"></path>
    <path d="M48.36,309.12c-.06,0-.16-.06-.18-.12s0-.3.23-.3a.25.25,0,0,1,.19.12C48.64,309,48.55,309.11,48.36,309.12Z" transform="translate(-3.36 -151.7)" style="fill:#1d1d1b;fill-rule:evenodd"></path>
    <path d="M43.3,304.91l.1.15-.22.11a2.21,2.21,0,0,1-.25.05Z" transform="translate(-3.36 -151.7)" style="fill:#1d1d1b;fill-rule:evenodd"></path>
    <path d="M63.27,330c-.28.52-.52,1.15-1.23,1.18s-.75-.56-.87-1.05c.87-.88,1.17-2.32,3-2.15,1,.1.46-1.38,1.05-2,1,1.06.62,2.37-.73,3.15C64.11,329.46,63.25,329.14,63.27,330Z" transform="translate(-3.36 -151.7)" style="fill:#1d1d1b;fill-rule:evenodd"></path>
    <path d="M51.35,322.75c0-.22-.17-.59-.08-.64.26-.19.41.06.46.29a.87.87,0,0,1-.35.84Z" transform="translate(-3.36 -151.7)" style="fill:#1d1d1b;fill-rule:evenodd"></path>
    <path d="M56.14,326.43c-.06,0-.17-.06-.17-.08a.73.73,0,0,1,.09-.22,1,1,0,0,1,.18-.17C56.21,326.11,56.17,326.27,56.14,326.43Z" transform="translate(-3.36 -151.7)" style="fill:#1d1d1b;fill-rule:evenodd"></path>
    <path d="M159,234.64q0,9.69-5,14.9a17,17,0,0,1-12.74,5.22H133V308H117.61V187h23.6a16.87,16.87,0,0,1,12.73,5.3q5,5.3,5,15Zm-15.41-1.18V208.79q0-6.79-6-6.81H133v38.11h4.56a5.54,5.54,0,0,0,4.25-1.89,6.78,6.78,0,0,0,1.73-4.76Z" transform="translate(-3.36 -151.7)" style="fill:#1d1d1b"></path>
    <path d="M212.11,288.18q0,9.68-6.05,15.72a20.08,20.08,0,0,1-14.7,6.06,19.79,19.79,0,0,1-14.62-6.06q-6-6-6-15.72V206.82q0-9.67,6.06-15.72a20.76,20.76,0,0,1,29.33,0q6,6,6,15.73Zm-15.4.45V206.52q0-5.75-5.19-5.75c-3.57,0-5.36,1.92-5.35,5.75v82.11q0,5.6,5.35,5.6Q196.71,294.23,196.71,288.63Z" transform="translate(-3.36 -151.7)" style="fill:#1d1d1b"></path>
    <path d="M265.26,308H249.85V262.77q0-6.81-6.29-6.8h-4.25v52h-15.4V187h22.47a18.17,18.17,0,0,1,13.37,5.15q5.49,5.58,5.5,15v28q0,9.38-7.86,13.15a10.91,10.91,0,0,1,5.73,5.37,18.29,18.29,0,0,1,2.13,8.7Zm-15.41-74.55V208.79q0-6.79-6-6.81h-4.56v38.26h4.56a5.43,5.43,0,0,0,4.25-2A7,7,0,0,0,249.85,233.44Z" transform="translate(-3.36 -151.7)" style="fill:#1d1d1b"></path>
    <path d="M311.13,196.21h-21.9V243H305v8.55H289.23V308h-9.07V187.64h31Z" transform="translate(-3.36 -151.7)" style="fill:#1d1d1b"></path>
    <path d="M358.85,308h-9.3l-3-25.43H330.45L327.31,308h-9l14.86-120.35H344Zm-13-33.85-6.22-53-1-15.34-1.19,15.36-6.23,52.93Z" transform="translate(-3.36 -151.7)" style="fill:#1d1d1b"></path>
    <path d="M405.47,187.64,390.45,308h-8.63l-15-120.35h8.85l10.26,97L387,268.58l9.46-80.94Z" transform="translate(-3.36 -151.7)" style="fill:#1d1d1b"></path>
    <path d="M455.22,291.29q0,8.41-5.17,13.54a16.94,16.94,0,0,1-12.32,5.11,16.33,16.33,0,0,1-12.05-4.82q-5.31-5.25-5.32-13.83v-87q0-8.43,5.16-13.54a16.94,16.94,0,0,1,12.36-5.11,16.35,16.35,0,0,1,12,4.81q5.32,5.26,5.33,13.84Zm-9.08.44V204.05a9.17,9.17,0,0,0-2.42-6.78,8.22,8.22,0,0,0-6-2.41,8.09,8.09,0,0,0-5.79,2.41,9,9,0,0,0-2.49,6.78v87.68a9.21,9.21,0,0,0,2.51,6.85,8,8,0,0,0,5.79,2.49,8.17,8.17,0,0,0,5.94-2.49A9.25,9.25,0,0,0,446.14,291.73Z" transform="translate(-3.36 -151.7)" style="fill:#1d1d1b"></path>
    <path d="M508.08,308H499V262.56a10.27,10.27,0,0,0-2.58-7.38,8.22,8.22,0,0,0-6.16-2.7h-8V308H473.2V187.64h18.3A16,16,0,0,1,503.08,192q5,5,5,13.39v28.73q0,10.23-8.44,13.85,8.44,3.6,8.44,14.59ZM499,233.52V205.84a9.66,9.66,0,0,0-2.5-7.07,8.41,8.41,0,0,0-6.26-2.56h-8v47.41h8a8.18,8.18,0,0,0,6.17-2.78A10.35,10.35,0,0,0,499,233.52Z" transform="translate(-3.36 -151.7)" style="fill:#1d1d1b"></path>
    <path d="M287.44,334.3h-6.07v19h-1.71v-19h-6.07v-1.54h13.83Z" transform="translate(-3.36 -151.7)" style="fill:#1d1d1b"></path>
    <path d="M302.46,347.58h-8l-1.85,5.74h-1.75l6.82-20.56h1.55L306,353.32h-1.69Zm-7.54-1.51H302l-3.52-11Z" transform="translate(-3.36 -151.7)" style="fill:#1d1d1b"></path>
    <path d="M313.9,345v8.37h-1.68V332.76h6.21A6.42,6.42,0,0,1,323,343.4,6.2,6.2,0,0,1,318.4,345Zm0-1.5h4.53a4.36,4.36,0,0,0,3.27-1.19,4.59,4.59,0,0,0,1.15-3.34,4.78,4.78,0,0,0-1.16-3.38,4.28,4.28,0,0,0-3.25-1.24H313.9Z" transform="translate(-3.36 -151.7)" style="fill:#1d1d1b"></path>
    <path d="M339.13,347.58h-8l-1.85,5.74h-1.74l6.78-20.56h1.56l6.86,20.57H341Zm-7.53-1.51h7l-3.53-11Z" transform="translate(-3.36 -151.7)" style="fill:#1d1d1b"></path>
    <path d="M359,348.27a3.58,3.58,0,0,0-1-2.71,10.34,10.34,0,0,0-3.81-1.9,12.11,12.11,0,0,1-4.09-2,4.77,4.77,0,0,1-1.72-3.84A4.84,4.84,0,0,1,350,334a6.38,6.38,0,0,1,4.36-1.49,6,6,0,0,1,4.47,1.73,6,6,0,0,1,1.73,4.43h-1.69a4.72,4.72,0,0,0-1.23-3.36,4.36,4.36,0,0,0-3.3-1.27,4.6,4.6,0,0,0-3.19,1.05,3.47,3.47,0,0,0-1.17,2.72,3.27,3.27,0,0,0,1.1,2.54,9.72,9.72,0,0,0,3.51,1.78,15.35,15.35,0,0,1,3.64,1.59,5,5,0,0,1,2.43,4.57,4.9,4.9,0,0,1-1.69,3.9,6.6,6.6,0,0,1-4.49,1.47,7.75,7.75,0,0,1-3.42-.74,5.71,5.71,0,0,1-2.43-2.13,6.06,6.06,0,0,1-.87-3.29h1.67a4.36,4.36,0,0,0,1.37,3.42,5.25,5.25,0,0,0,3.7,1.24,4.81,4.81,0,0,0,3.25-1A3.49,3.49,0,0,0,359,348.27Z" transform="translate(-3.36 -151.7)" style="fill:#1d1d1b"></path>
    <path d="M380,342.14a13,13,0,0,1-1.64-2.75,5.87,5.87,0,0,1-.45-2.22,4.88,4.88,0,0,1,1.14-3.44,4,4,0,0,1,3.08-1.25,3.77,3.77,0,0,1,2.83,1.14,4,4,0,0,1,1.1,2.9,5.45,5.45,0,0,1-1.94,3.9L382,342.24l4.82,6.47a10.15,10.15,0,0,0,1-4.59h1.47a10.45,10.45,0,0,1-1.58,5.87l2.47,3.33h-2l-1.5-2a7.09,7.09,0,0,1-2.23,1.68,6.17,6.17,0,0,1-2.64.59,5.57,5.57,0,0,1-4.09-1.51,5.43,5.43,0,0,1-1.53-4,5.64,5.64,0,0,1,.77-2.82A13.38,13.38,0,0,1,380,342.14Zm2,10a5.1,5.1,0,0,0,4-2L381,343.44l-.15-.16-.53.46c-1.55,1.46-2.33,2.91-2.33,4.33a4,4,0,0,0,1.09,3A3.89,3.89,0,0,0,382,352.15Zm-2.47-15a7.34,7.34,0,0,0,1.65,4l1.53-1.35a6.22,6.22,0,0,0,1.28-1.43,3.21,3.21,0,0,0,.49-1.81,2.73,2.73,0,0,0-.65-1.84,2.19,2.19,0,0,0-1.74-.73,2.26,2.26,0,0,0-1.85.87A3.55,3.55,0,0,0,379.49,337.12Z" transform="translate(-3.36 -151.7)" style="fill:#1d1d1b"></path>
    <path d="M411.7,350.75l0,.23.06-.23,5.58-18h1.84l-6.68,20.57H411l-6.68-20.57h1.85Z" transform="translate(-3.36 -151.7)" style="fill:#1d1d1b"></path>
    <path d="M427.39,353.33h-1.67V332.76h1.67Z" transform="translate(-3.36 -151.7)" style="fill:#1d1d1b"></path>
    <path d="M449.21,353.33h-1.68l-10.11-17.51v17.51h-1.68V332.76h1.68l10.1,17.54V332.76h1.67Z" transform="translate(-3.36 -151.7)" style="fill:#1d1d1b"></path>
    <path d="M457.29,353.33V332.76h5.4a6.27,6.27,0,0,1,4.38,1.37,5.14,5.14,0,0,1,1.5,4,5,5,0,0,1-.77,2.75,4.25,4.25,0,0,1-2.11,1.69,4.33,4.33,0,0,1,2.52,1.75,5.41,5.41,0,0,1,1,3.2,5.32,5.32,0,0,1-5.83,5.79ZM459,342h3.9a4.21,4.21,0,0,0,3-1,4.52,4.52,0,0,0,0-5.79,4.61,4.61,0,0,0-3.14-.91H459Zm0,1.47v8.38h4.44a4,4,0,0,0,3-1.12,4.31,4.31,0,0,0,1.1-3.14,4.17,4.17,0,0,0-1-3,3.8,3.8,0,0,0-2.84-1.15Z" transform="translate(-3.36 -151.7)" style="fill:#1d1d1b"></path>
    <path d="M486.11,347.58h-8l-1.85,5.74h-1.74l6.77-20.56h1.56l6.88,20.57H488Zm-7.54-1.51h7.05l-3.52-11Z" transform="translate(-3.36 -151.7)" style="fill:#1d1d1b"></path>
    <path d="M502.55,344.77h-5v8.56h-1.69V332.76h5.86a6.13,6.13,0,0,1,4.53,1.61,6,6,0,0,1,1.61,4.45,6.15,6.15,0,0,1-1,3.5,5.13,5.13,0,0,1-2.69,2.08l4.46,8.74v.19h-1.8Zm-5-1.5H502a3.87,3.87,0,0,0,3-1.25,5.23,5.23,0,0,0-.05-6.55,4.44,4.44,0,0,0-3.29-1.18h-4.15Z" transform="translate(-3.36 -151.7)" style="fill:#1d1d1b"></path>
  </g>
</svg>
